<svg width="3207" height="901" viewBox="0 0 3207 901" fill="none" xmlns="http://www.w3.org/2000/svg">
<path d="M382.48 334.018C482.77 334.018 564.055 415.304 564.055 515.582C564.055 615.849 482.77 697.133 382.48 697.133C282.211 697.133 200.916 615.849 200.916 515.582C200.916 415.302 282.211 334.018 382.48 334.018Z" fill="black"/>
<path d="M382.48 135C334.826 135 289.355 144.155 247.264 160.149C256.459 169.487 264.063 180.357 269.902 192.279C305.248 179.979 343.042 172.978 382.501 172.978C572.465 172.978 726.99 327.556 726.99 517.48C726.99 707.404 572.463 862.011 382.48 862.011C192.537 862.011 37.9991 707.423 37.9991 517.501C37.9991 453.516 55.8492 393.777 86.347 342.377C75.895 334.376 66.6788 324.782 59.2983 313.851C21.9443 372.894 0 442.604 0 517.501C0 728.407 171.572 900.002 382.48 900.002C593.407 900.002 765 728.409 765 517.501C765 306.593 593.407 135 382.48 135Z" fill="black"/>
<path d="M160.406 170.744C203.701 170.744 238.792 205.834 238.792 249.13C238.792 292.426 203.701 327.516 160.406 327.516C117.12 327.516 82.0195 292.426 82.0195 249.13C82.0195 205.834 117.12 170.744 160.406 170.744Z" fill="black"/>
<path d="M1142.55 763.1C1247.2 763.1 1310.9 700.05 1310.9 623.35C1310.9 553.15 1269.95 518.05 1213.4 494L1147.75 466.7C1108.75 450.45 1070.4 434.85 1070.4 393.9C1070.4 356.2 1101.6 332.8 1150.35 332.8C1192.6 332.8 1226.4 349.05 1256.3 375.05L1295.3 327.6C1259.55 290.55 1206.9 267.15 1150.35 267.15C1059.35 267.15 993.7 323.7 993.7 399.1C993.7 468.65 1044.4 505.05 1090.55 523.9L1156.85 553.15C1201.05 572 1233.55 585.65 1233.55 629.2C1233.55 670.15 1201.05 696.8 1143.85 696.8C1097.7 696.8 1050.25 674.7 1016.45 640.25L972.25 692.9C1015.8 737.1 1076.25 763.1 1142.55 763.1ZM1480.59 754H1556.64V339.3H1697.04V275.6H1340.19V339.3H1480.59V754ZM1686.31 754H1763.01L1840.36 494.65C1856.61 442.65 1870.91 389.35 1885.21 335.4H1887.81C1902.76 388.7 1917.06 442.65 1933.31 494.65L2010.01 754H2089.96L1932.01 275.6H1844.26L1686.31 754ZM1775.36 618.15H1998.96V559H1775.36V618.15ZM2153.06 754H2313.61C2419.56 754 2496.26 708.5 2496.26 613.6C2496.26 549.25 2457.26 511.55 2402.66 499.85V497.25C2445.56 482.3 2470.26 439.4 2470.26 393.25C2470.26 306.8 2399.41 275.6 2301.91 275.6H2153.06V754ZM2229.11 475.15V334.75H2295.41C2362.36 334.75 2396.16 353.6 2396.16 403.65C2396.16 447.85 2366.26 475.15 2293.46 475.15H2229.11ZM2229.11 694.85V532.35H2305.16C2381.21 532.35 2422.16 556.4 2422.16 610.35C2422.16 668.2 2379.26 694.85 2305.16 694.85H2229.11ZM2586.6 754H2865.45V690.3H2662.65V275.6H2586.6V754ZM2968.05 754H3043.45V573.3L3187.1 275.6H3108.45L3053.2 403C3038.25 438.1 3023.3 471.9 3007.05 508.3H3004.45C2988.85 471.9 2975.2 438.1 2960.25 403L2904.35 275.6H2823.75L2968.05 573.3V754Z" fill="black"/>
</svg>
